<svg width="355.8936614148944" height="48.22823094067096" viewBox="0 0 355.8936614148944 48.22823094067096" class="css-1j8o68f"><defs id="SvgjsDefs5399"><linearGradient id="SvgjsLinearGradient5408"><stop id="SvgjsStop5409" stop-color="#00ff8f" offset="0"></stop><stop id="SvgjsStop5410" stop-color="#00a1ff" offset="1"></stop></linearGradient><linearGradient id="SvgjsLinearGradient5411"><stop id="SvgjsStop5412" stop-color="#00ff8f" offset="0"></stop><stop id="SvgjsStop5413" stop-color="#00a1ff" offset="1"></stop></linearGradient></defs><g id="SvgjsG5400" featurekey="symbolFeature-0" transform="matrix(0.00601033498489887,0,0,0.00601033498489887,-3.005167492449435,-5.938210965080083)" fill="url(#SvgjsLinearGradient5408)"><defs xmlns="http://www.w3.org/2000/svg"></defs><g xmlns="http://www.w3.org/2000/svg"><path class="fil0" d="M6669 6442l-2652 0c-158,176 -347,379 -523,578 -399,451 -1334,822 -1470,858 -136,36 -499,18 -281,-235 218,-253 435,-903 435,-1201l-626 0c-578,0 -1052,-471 -1052,-1048l0 -3359c0,-576 474,-1047 1052,-1047l5117 0c579,0 1053,471 1053,1047l0 3359c0,577 -474,1048 -1053,1048zm-780 -3287c-280,0 -508,226 -508,506 0,279 228,505 508,505 281,0 508,-226 508,-505 0,-280 -227,-506 -508,-506zm-1742 54c-280,0 -508,227 -508,506 0,279 228,506 508,506 281,0 508,-227 508,-506 0,-279 -227,-506 -508,-506zm-1742 54c-280,0 -508,227 -508,506 0,279 228,506 508,506 281,0 508,-227 508,-506 0,-279 -227,-506 -508,-506zm6115 -523l-149 0c6,41 9,83 9,126l0 3197c0,536 -441,975 -980,975l-3090 0c-201,218 -538,583 -538,583 0,0 108,266 448,266l2712 0c103,328 379,603 563,745 200,153 549,365 839,379 290,13 322,-81 272,-145 -50,-63 -195,-406 -254,-560 -38,-99 -34,-294 -27,-419l195 0c539,0 980,-439 980,-976l0 -3196c0,-537 -441,-975 -980,-975z" style="fill: url(#SvgjsLinearGradient5408);"></path></g></g><g id="SvgjsG5401" featurekey="nameLeftFeature-0" transform="matrix(1.9444650724850976,0,0,1.9444650724850976,72.50195202801454,-1.2934589929340436)" fill="#000000"><path d="M0.84746 17.729 l0.47441 -0.55932 c0.15238 -0.15254 0.30492 -0.13559 0.44051 -0.033898 c0.32203 0.27119 1.6441 1.7119 3.5254 1.7119 c2.2373 0 3.2203 -1.2203 3.2203 -2.4237 c0 -1.7288 -1.9663 -2.1864 -3.7459 -2.8305 c-2.0169 -0.76271 -3.7458 -1.678 -3.7458 -3.7119 c0 -1.6949 1.2373 -3.5593 4.2712 -3.5593 c2.0847 0 3.5932 1.2542 4 1.6102 c0.13559 0.11864 0.18644 0.27119 0.084912 0.40678 l-0.44068 0.57627 c-0.10169 0.13559 -0.23729 0.16949 -0.38983 0.067797 c-0.33898 -0.25424 -1.5592 -1.3898 -3.2371 -1.3898 c-1.8985 0 -2.9663 1 -2.9663 2.288 c0 1.4915 1.5086 2.0169 3.4917 2.7288 c1.8136 0.67797 4 1.5932 4 3.8305 c0 1.9661 -1.8303 3.6608 -4.5253 3.6608 c-2.4746 0 -4 -1.61 -4.3898 -1.9998 c-0.11864 -0.11864 -0.22034 -0.22034 -0.067797 -0.37271 z"></path></g><g id="SvgjsG5402" featurekey="inlineSymbolFeature-0" transform="matrix(1.1921201135994284,0,0,1.1921201135994284,89.98318139335026,5.323686681688354)" fill="url(#SvgjsLinearGradient5411)"><path xmlns="http://www.w3.org/2000/svg" d="M21.11,21.157h5.002v-6.867c-0.028-1.706-0.61-3.807-2.172-5.841c-1.539-2.014-4.315-3.72-7.939-3.687  C12.374,4.731,9.598,6.437,8.06,8.45c-1.562,2.034-2.145,4.136-2.174,5.842v6.866h5v-6.866c-0.027-0.377,0.303-1.789,1.099-2.748  c0.819-0.979,1.848-1.747,4.014-1.778c2.165,0.032,3.195,0.799,4.013,1.778c0.798,0.959,1.126,2.372,1.099,2.748V21.157  L21.11,21.157z M26.112,27.236c0,0,0-2.354,0-5.079H21.11c0,2.727,0,5.08,0,5.08l5.004-0.001H26.112z M5.886,27.237h5  c0,0,0-2.354,0-5.08h-5C5.886,24.884,5.886,27.237,5.886,27.237z"></path></g><g id="SvgjsG5403" featurekey="nameRightFeature-0" transform="matrix(1.9420588524090252,0,0,1.9420588524090252,124.65730624944058,-1.278140618784061)" fill="#000000"><path d="M14.169 19.62712 c0.10169 0.20339 0.034229 0.37271 -0.20305 0.37271 l-1.9831 0 c-0.16949 0 -0.27119 -0.08458 -0.33898 -0.22017 l-0.91525 -1.9322 l-6.5256 0 l-0.91525 1.9322 c-0.067797 0.13559 -0.18644 0.22017 -0.33898 0.22017 l-2 0 c-0.20339 0 -0.32203 -0.16933 -0.22034 -0.37271 l6.3898 -13.102 c0.067797 -0.11881 0.15238 -0.16966 0.23712 -0.16966 l0.20339 0 c0.10169 0 0.16949 0.050847 0.23729 0.16966 z M5.2375 15.6441 l4.4576 0 l-2.2203 -4.7288 z M21.66084745762712 6.441000000000001 c2.8136 0 4.661 2.5424 4.661 4.6271 c0 2.2373 -1.8475 4.661 -4.661 4.661 l-3 0 l0 3.9322 c0 0.20339 -0.13559 0.33881 -0.32203 0.33881 l-1.7966 0 c-0.16949 0 -0.30508 -0.13543 -0.30508 -0.33881 l0 -12.898 c0 -0.16949 0.13559 -0.32203 0.32203 -0.32203 l5.1017 0 z M21.40664745762712 13.39 c1.5932 0 2.4915 -1.1697 2.4915 -2.3222 c0 -1.1354 -0.89831 -2.288 -2.4915 -2.288 l-2.7458 0 l0 4.6102 l2.7458 0 z M33.44050847457627 6.441000000000001 c2.8136 0 4.661 2.5424 4.661 4.6271 c0 2.2373 -1.8475 4.661 -4.661 4.661 l-3 0 l0 3.9322 c0 0.20339 -0.13559 0.33881 -0.32203 0.33881 l-1.7966 0 c-0.16949 0 -0.30508 -0.13543 -0.30508 -0.33881 l0 -12.898 c0 -0.16949 0.13559 -0.32203 0.32203 -0.32203 l5.1017 0 z M33.18630847457627 13.39 c1.5932 0 2.4915 -1.1697 2.4915 -2.3222 c0 -1.1354 -0.89831 -2.288 -2.4915 -2.288 l-2.7458 0 l0 4.6102 l2.7458 0 z M51.15216949152543 6.441000000000001 c0.18661 0 0.30525 0.20339 0.18661 0.38983 l-5.0169 7.7119 l0 5.1188 c0 0.20339 -0.11864 0.33881 -0.30525 0.33881 l-1.2712 0 c-0.52542 0 -0.83051 -0.37288 -0.83051 -0.86441 l0 -4.5932 l-5 -7.7119 c-0.11864 -0.18644 0 -0.38983 0.18644 -0.38983 l2.1695 0 c0.18644 0 0.27119 0.15254 0.37288 0.32203 l3.4746 5.3559 l3.4576 -5.3559 c0.11864 -0.16949 0.20339 -0.32203 0.37288 -0.32203 l2.2034 0 z M68.94913559322033 17.4578 c0.16949 0.13559 0.16933 0.30508 0.016784 0.45763 c-1.2542 1.3729 -3.0339 2.2032 -5.0678 2.2032 c-3.7288 0 -6.8475 -2.9998 -6.8475 -6.8642 c0 -3.8475 3.1186 -6.9322 6.8475 -6.9322 c2.0508 0 3.8475 0.84746 5.1186 2.2373 c0.15254 0.15254 0.13559 0.32203 -0.016949 0.45763 l-1.4068 1.1356 c-0.16966 0.13559 -0.32203 0.11864 -0.45763 -0.033898 c-0.72881 -0.76271 -1.8644 -1.4575 -3.2203 -1.4575 c-2.4915 0 -4.4405 2.1524 -4.4405 4.5931 c0 2.4746 1.949 4.5254 4.4405 4.5254 c1.339 0 2.4576 -0.66102 3.1695 -1.4068 c0.15254 -0.15254 0.30508 -0.16949 0.47458 -0.050847 z M82.20330508474575 6.441000000000001 c0.18644 0 0.33881 0.15254 0.33881 0.32203 l0 12.898 c0 0.20339 -0.13559 0.33881 -0.30525 0.33881 l-1.288 0 c-0.54237 0 -0.84763 -0.37288 -0.84763 -0.86441 l0 -4.5422 l-6.5085 0 l0 5.0678 c0 0.16949 -0.13559 0.33881 -0.32203 0.33881 l-1.7627 0 c-0.18644 0 -0.33898 -0.15238 -0.33898 -0.33881 l0 -12.898 c0 -0.16949 0.13559 -0.32203 0.3222 -0.32203 l1.7627 0 c0.18644 0 0.33898 0.15254 0.33898 0.32203 l0 5.3898 l6.5085 0 l0 -5.3898 c0 -0.16949 0.13559 -0.32203 0.33898 -0.32203 l1.7629 0 z M97.9825593220339 19.62712 c0.10169 0.20339 0.034229 0.37271 -0.20305 0.37271 l-1.9831 0 c-0.16949 0 -0.27119 -0.08458 -0.33898 -0.22017 l-0.91525 -1.9322 l-6.5256 0 l-0.91525 1.9322 c-0.067797 0.13559 -0.18644 0.22017 -0.33898 0.22017 l-2 0 c-0.20339 0 -0.32203 -0.16933 -0.22034 -0.37271 l6.3898 -13.102 c0.067797 -0.11881 0.15238 -0.16966 0.23712 -0.16966 l0.20339 0 c0.10169 0 0.16949 0.050847 0.23729 0.16966 z M89.0510593220339 15.6441 l4.4576 0 l-2.2203 -4.7288 z M108.01645762711864 6.441000000000001 c0.16949 0 0.32203 0.13592 0.32203 0.32237 l0 1.6949 c0 0.16933 -0.15254 0.32186 -0.32203 0.32186 l-3.8305 0 l0 10.881 c0 0.20339 -0.13559 0.33881 -0.32203 0.33881 l-1.2542 0 c-0.54237 0 -0.84746 -0.37288 -0.84746 -0.86441 l0 -10.356 l-3.8136 0 c-0.16949 0 -0.33898 -0.13559 -0.33898 -0.32203 l0 -1.678 c0 -0.18644 0.15254 -0.33898 0.33898 -0.33898 l10.068 0 z M109.96610491525425 17.6442 l0.96576 -1.1188 c0.20339 -0.23746 0.45763 -0.23746 0.64407 -0.10186 c0.55932 0.47458 1.5593 1.3729 2.8136 1.3729 c1.2203 0 2.2712 -0.4578 2.2712 -1.5086 c0 -1.1017 -1.1356 -1.4237 -2.3051 -1.8983 c-2.4237 -1 -4.1864 -2.0339 -4.1864 -4.2373 c0 -1.7288 1.2712 -3.8136 4.339 -3.8136 c2.0847 0 3.5934 1.1866 4.0341 1.6273 c0.18644 0.18644 0.28814 0.42373 0.11864 0.62712 l-0.84746 1.1186 c-0.16966 0.22034 -0.40678 0.32203 -0.67797 0.13559 c-0.54237 -0.42373 -1.4237 -1.2034 -2.6102 -1.2034 c-1.2034 0 -1.9492 0.69492 -1.9492 1.5085 c0 0.89831 0.77966 1.339 2.0508 1.8475 c2.2203 0.93254 4.4407 1.9325 4.4407 4.3224 c0 1.9831 -1.9659 3.7964 -4.6439 3.7964 c-2.4237 0 -3.9322 -1.5422 -4.3559 -1.949 c-0.15254 -0.13559 -0.30508 -0.32203 -0.10169 -0.52542 z"></path></g></svg>